<svg width="59" height="34" viewBox="0 0 59 34" fill="none" xmlns="http://www.w3.org/2000/svg">
<path d="M16.064 4.64C16.3093 4.64 16.5067 4.72 16.656 4.88C16.8053 5.02933 16.88 5.22667 16.88 5.472V15.248C16.88 15.4933 16.8053 15.696 16.656 15.856C16.5067 16.0053 16.3093 16.08 16.064 16.08C15.8187 16.08 15.6213 16.0053 15.472 15.856C15.3227 15.7067 15.248 15.504 15.248 15.248V10.944H8.944V15.248C8.944 15.4933 8.86933 15.696 8.72 15.856C8.57067 16.0053 8.37333 16.08 8.128 16.08C7.88267 16.08 7.68533 16.0053 7.536 15.856C7.38667 15.7067 7.312 15.504 7.312 15.248V5.472C7.312 5.22667 7.38667 5.02933 7.536 4.88C7.68533 4.72 7.88267 4.64 8.128 4.64C8.37333 4.64 8.57067 4.72 8.72 4.88C8.86933 5.02933 8.944 5.22667 8.944 5.472V9.6H15.248V5.472C15.248 5.22667 15.3227 5.02933 15.472 4.88C15.6213 4.72 15.8187 4.64 16.064 4.64ZM22.6995 16.112C21.9315 16.112 21.2542 15.9467 20.6675 15.616C20.0915 15.2853 19.6435 14.816 19.3235 14.208C19.0142 13.5893 18.8595 12.8747 18.8595 12.064C18.8595 11.2427 19.0142 10.528 19.3235 9.92C19.6435 9.30133 20.0915 8.82667 20.6675 8.496C21.2542 8.16533 21.9315 8 22.6995 8C23.4675 8 24.1395 8.16533 24.7155 8.496C25.3022 8.82667 25.7502 9.30133 26.0595 9.92C26.3795 10.528 26.5395 11.2427 26.5395 12.064C26.5395 12.8747 26.3795 13.5893 26.0595 14.208C25.7502 14.816 25.3022 15.2853 24.7155 15.616C24.1395 15.9467 23.4675 16.112 22.6995 16.112ZM22.6995 14.832C23.4142 14.832 23.9582 14.5973 24.3315 14.128C24.7155 13.6587 24.9075 12.9707 24.9075 12.064C24.9075 11.168 24.7155 10.4853 24.3315 10.016C23.9475 9.536 23.4035 9.296 22.6995 9.296C21.9955 9.296 21.4515 9.536 21.0675 10.016C20.6835 10.4853 20.4915 11.168 20.4915 12.064C20.4915 12.9707 20.6782 13.6587 21.0515 14.128C21.4355 14.5973 21.9848 14.832 22.6995 14.832ZM34.3868 8.032C34.6321 8.032 34.8241 8.10133 34.9628 8.24C35.1121 8.37867 35.1868 8.57067 35.1868 8.816V15.328C35.1868 15.552 35.1121 15.7333 34.9628 15.872C34.8134 16.0107 34.6161 16.08 34.3708 16.08C34.1468 16.08 33.9654 16.016 33.8268 15.888C33.6881 15.7493 33.6188 15.568 33.6188 15.344V14.736C33.3734 15.184 33.0321 15.5253 32.5948 15.76C32.1681 15.9947 31.6881 16.112 31.1548 16.112C29.2561 16.112 28.3068 15.0667 28.3068 12.976V8.816C28.3068 8.57067 28.3761 8.37867 28.5148 8.24C28.6641 8.10133 28.8668 8.032 29.1228 8.032C29.3681 8.032 29.5601 8.10133 29.6988 8.24C29.8481 8.37867 29.9228 8.57067 29.9228 8.816V12.96C29.9228 13.5893 30.0508 14.0533 30.3068 14.352C30.5628 14.6507 30.9574 14.8 31.4908 14.8C32.1201 14.8 32.6214 14.5973 32.9948 14.192C33.3788 13.7867 33.5708 13.248 33.5708 12.576V8.816C33.5708 8.58133 33.6454 8.39467 33.7948 8.256C33.9441 8.10667 34.1414 8.032 34.3868 8.032ZM46.4081 8C48.1575 8 49.0321 9.05067 49.0321 11.152V15.312C49.0321 15.5573 48.9575 15.7493 48.8081 15.888C48.6588 16.016 48.4615 16.08 48.2161 16.08C47.9815 16.08 47.7895 16.016 47.6401 15.888C47.4908 15.7493 47.4161 15.5573 47.4161 15.312V11.168C47.4161 10.5173 47.2988 10.048 47.0641 9.76C46.8295 9.46133 46.4615 9.312 45.9601 9.312C45.3735 9.312 44.9095 9.51467 44.5681 9.92C44.2268 10.3147 44.0561 10.8587 44.0561 11.552V15.312C44.0561 15.5573 43.9815 15.7493 43.8321 15.888C43.6828 16.016 43.4855 16.08 43.2401 16.08C43.0055 16.08 42.8135 16.016 42.6641 15.888C42.5148 15.7493 42.4401 15.5573 42.4401 15.312V11.168C42.4401 10.5173 42.3228 10.048 42.0881 9.76C41.8535 9.46133 41.4855 9.312 40.9841 9.312C40.3975 9.312 39.9281 9.51467 39.5761 9.92C39.2348 10.3147 39.0641 10.8587 39.0641 11.552V15.312C39.0641 15.5573 38.9895 15.7493 38.8401 15.888C38.6908 16.016 38.4988 16.08 38.2641 16.08C38.0295 16.08 37.8321 16.016 37.6721 15.888C37.5228 15.7493 37.4481 15.5573 37.4481 15.312V8.8C37.4481 8.56533 37.5281 8.37867 37.6881 8.24C37.8481 8.10133 38.0401 8.032 38.2641 8.032C38.4881 8.032 38.6695 8.10133 38.8081 8.24C38.9575 8.368 39.0321 8.54933 39.0321 8.784V9.376C39.2668 8.928 39.5921 8.58667 40.0081 8.352C40.4241 8.11733 40.9041 8 41.4481 8C42.0455 8 42.5361 8.12267 42.9201 8.368C43.3148 8.61333 43.6081 8.992 43.8001 9.504C44.0348 9.04533 44.3815 8.68267 44.8401 8.416C45.2988 8.13867 45.8215 8 46.4081 8Z" fill="#FF452B"/>
<path d="M12.636 14.22C12.972 14.22 13.242 14.328 13.446 14.544C13.65 14.748 13.752 15.024 13.752 15.372V26.028C13.752 26.364 13.656 26.628 13.464 26.82C13.272 27.012 13.02 27.108 12.708 27.108C12.396 27.108 12.15 27.012 11.97 26.82C11.79 26.628 11.7 26.364 11.7 26.028V18.612L8.64 24.408C8.496 24.672 8.34 24.87 8.172 25.002C8.004 25.122 7.806 25.182 7.578 25.182C7.35 25.182 7.152 25.122 6.984 25.002C6.816 24.882 6.66 24.684 6.516 24.408L3.438 18.702V26.028C3.438 26.352 3.342 26.616 3.15 26.82C2.97 27.012 2.724 27.108 2.412 27.108C2.1 27.108 1.854 27.012 1.674 26.82C1.494 26.628 1.404 26.364 1.404 26.028V15.372C1.404 15.024 1.5 14.748 1.692 14.544C1.896 14.328 2.166 14.22 2.502 14.22C2.97 14.22 3.336 14.478 3.6 14.994L7.596 22.608L11.574 14.994C11.838 14.478 12.192 14.22 12.636 14.22ZM20.3188 27.144C19.4188 27.144 18.6268 26.958 17.9428 26.586C17.2708 26.214 16.7488 25.68 16.3768 24.984C16.0048 24.288 15.8188 23.478 15.8188 22.554C15.8188 21.63 16.0048 20.826 16.3768 20.142C16.7488 19.446 17.2708 18.912 17.9428 18.54C18.6268 18.168 19.4188 17.982 20.3188 17.982C21.2188 17.982 22.0048 18.168 22.6768 18.54C23.3608 18.912 23.8828 19.446 24.2428 20.142C24.6148 20.826 24.8008 21.63 24.8008 22.554C24.8008 23.478 24.6148 24.288 24.2428 24.984C23.8828 25.68 23.3608 26.214 22.6768 26.586C22.0048 26.958 21.2188 27.144 20.3188 27.144ZM20.3008 25.398C21.0328 25.398 21.5908 25.158 21.9748 24.678C22.3588 24.198 22.5508 23.49 22.5508 22.554C22.5508 21.63 22.3588 20.928 21.9748 20.448C21.5908 19.956 21.0388 19.71 20.3188 19.71C19.5988 19.71 19.0408 19.956 18.6448 20.448C18.2608 20.928 18.0688 21.63 18.0688 22.554C18.0688 23.49 18.2608 24.198 18.6448 24.678C19.0288 25.158 19.5808 25.398 20.3008 25.398ZM32.6557 18.666C32.7517 18.45 32.8777 18.288 33.0337 18.18C33.2017 18.072 33.3817 18.018 33.5737 18.018C33.8497 18.018 34.0957 18.114 34.3117 18.306C34.5397 18.486 34.6537 18.714 34.6537 18.99C34.6537 19.134 34.6177 19.278 34.5457 19.422L31.2157 26.388C31.1077 26.616 30.9517 26.79 30.7477 26.91C30.5557 27.03 30.3397 27.09 30.0997 27.09C29.8717 27.09 29.6497 27.03 29.4337 26.91C29.2297 26.79 29.0737 26.616 28.9657 26.388L25.6177 19.422C25.5577 19.302 25.5277 19.164 25.5277 19.008C25.5277 18.732 25.6417 18.498 25.8697 18.306C26.1097 18.114 26.3797 18.018 26.6797 18.018C27.1117 18.018 27.4297 18.228 27.6337 18.648L30.1537 24.21L32.6557 18.666ZM47.845 24.588C48.049 24.588 48.211 24.666 48.331 24.822C48.463 24.978 48.529 25.188 48.529 25.452C48.529 25.824 48.307 26.136 47.863 26.388C47.455 26.616 46.993 26.802 46.477 26.946C45.961 27.078 45.469 27.144 45.001 27.144C43.585 27.144 42.463 26.736 41.635 25.92C40.807 25.104 40.393 23.988 40.393 22.572C40.393 21.672 40.573 20.874 40.933 20.178C41.293 19.482 41.797 18.942 42.445 18.558C43.105 18.174 43.849 17.982 44.677 17.982C45.469 17.982 46.159 18.156 46.747 18.504C47.335 18.852 47.791 19.344 48.115 19.98C48.439 20.616 48.601 21.366 48.601 22.23C48.601 22.746 48.373 23.004 47.917 23.004H42.607C42.679 23.832 42.913 24.444 43.309 24.84C43.705 25.224 44.281 25.416 45.037 25.416C45.421 25.416 45.757 25.368 46.045 25.272C46.345 25.176 46.681 25.044 47.053 24.876C47.413 24.684 47.677 24.588 47.845 24.588ZM44.731 19.566C44.119 19.566 43.627 19.758 43.255 20.142C42.895 20.526 42.679 21.078 42.607 21.798H46.675C46.651 21.066 46.471 20.514 46.135 20.142C45.799 19.758 45.331 19.566 44.731 19.566ZM53.6275 27.144C52.3195 27.144 51.2635 26.886 50.4595 26.37C50.0755 26.142 49.8835 25.818 49.8835 25.398C49.8835 25.158 49.9495 24.966 50.0815 24.822C50.2135 24.666 50.3755 24.588 50.5675 24.588C50.7715 24.588 51.0535 24.684 51.4135 24.876C51.7975 25.056 52.1455 25.194 52.4575 25.29C52.7815 25.386 53.1895 25.434 53.6815 25.434C54.1855 25.434 54.5755 25.35 54.8515 25.182C55.1395 25.014 55.2835 24.78 55.2835 24.48C55.2835 24.276 55.2235 24.114 55.1035 23.994C54.9955 23.874 54.7915 23.766 54.4915 23.67C54.2035 23.562 53.7595 23.442 53.1595 23.31C52.0915 23.094 51.3235 22.788 50.8555 22.392C50.3995 21.996 50.1715 21.45 50.1715 20.754C50.1715 20.226 50.3275 19.752 50.6395 19.332C50.9515 18.9 51.3775 18.57 51.9175 18.342C52.4695 18.102 53.0935 17.982 53.7895 17.982C54.2935 17.982 54.7795 18.048 55.2475 18.18C55.7155 18.3 56.1355 18.48 56.5075 18.72C56.8915 18.96 57.0835 19.278 57.0835 19.674C57.0835 19.914 57.0175 20.118 56.8855 20.286C56.7535 20.442 56.5915 20.52 56.3995 20.52C56.2675 20.52 56.1355 20.496 56.0035 20.448C55.8835 20.388 55.7275 20.304 55.5355 20.196C55.1875 20.016 54.8875 19.884 54.6355 19.8C54.3835 19.704 54.0715 19.656 53.6995 19.656C53.2555 19.656 52.9015 19.746 52.6375 19.926C52.3855 20.106 52.2595 20.352 52.2595 20.664C52.2595 20.964 52.3915 21.192 52.6555 21.348C52.9195 21.504 53.4295 21.66 54.1855 21.816C54.9895 21.984 55.6195 22.176 56.0755 22.392C56.5315 22.608 56.8555 22.878 57.0475 23.202C57.2515 23.526 57.3535 23.94 57.3535 24.444C57.3535 25.26 57.0115 25.914 56.3275 26.406C55.6555 26.898 54.7555 27.144 53.6275 27.144Z" fill="#263238"/>
<path d="M37.924 27.078C37.612 27.078 37.365 26.987 37.183 26.805C37.001 26.623 36.91 26.376 36.91 26.064V18.771C36.91 18.4677 37.001 18.225 37.183 18.043C37.365 17.861 37.612 17.77 37.924 17.77C38.236 17.77 38.483 17.861 38.665 18.043C38.847 18.225 38.938 18.4677 38.938 18.771V26.064C38.938 26.376 38.847 26.623 38.665 26.805C38.483 26.987 38.236 27.078 37.924 27.078Z" fill="#263238"/>
</svg>
